<?xml version="1.0" encoding="UTF-8" standalone="no"?>
<svg
   xmlns:dc="http://purl.org/dc/elements/1.1/"
   xmlns:cc="http://creativecommons.org/ns#"
   xmlns:rdf="http://www.w3.org/1999/02/22-rdf-syntax-ns#"
   xmlns:svg="http://www.w3.org/2000/svg"
   xmlns="http://www.w3.org/2000/svg"
   xmlns:sodipodi="http://sodipodi.sourceforge.net/DTD/sodipodi-0.dtd"
   xmlns:inkscape="http://www.inkscape.org/namespaces/inkscape"
   width="1052"
   height="1052"
   id="svg2"
   version="1.1"
   inkscape:version="0.91 r13725"
   sodipodi:docname="torinojs-logo-tshirt-alternate.svg">
  <metadata
     id="metadata34">
    <rdf:RDF>
      <cc:Work
         rdf:about="">
        <dc:format>image/svg+xml</dc:format>
        <dc:type
           rdf:resource="http://purl.org/dc/dcmitype/StillImage" />
        <dc:title></dc:title>
      </cc:Work>
    </rdf:RDF>
  </metadata>
  <sodipodi:namedview
     pagecolor="#ffffff"
     bordercolor="#666666"
     borderopacity="1"
     objecttolerance="10"
     gridtolerance="10"
     guidetolerance="10"
     inkscape:pageopacity="0"
     inkscape:pageshadow="2"
     inkscape:window-width="1920"
     inkscape:window-height="1134"
     id="namedview32"
     showgrid="false"
     inkscape:zoom="0.63451406"
     inkscape:cx="518.0045"
     inkscape:cy="222.65111"
     inkscape:window-x="0"
     inkscape:window-y="27"
     inkscape:window-maximized="1"
     inkscape:current-layer="g4"
     showguides="true"
     inkscape:guide-bbox="true">
    <sodipodi:guide
       position="1134.7266,59.88835"
       orientation="0,1"
       id="guide4439" />
    <sodipodi:guide
       position="992.8858,565.78731"
       orientation="1,0"
       id="guide4182" />
    <sodipodi:guide
       position="310.47381,652.46781"
       orientation="1,0"
       id="guide4184" />
    <sodipodi:guide
       position="625.67565,245.85744"
       orientation="1,0"
       id="guide4205" />
    <sodipodi:guide
       position="-149.72087,387.69826"
       orientation="0,1"
       id="guide4207" />
    <sodipodi:guide
       position="731.26827,6.3040368"
       orientation="1,0"
       id="guide4209" />
  </sodipodi:namedview>
  <g
     id="g4"
     transform="matrix(0.72004115,0,0,0.72004115,295.39688,294.51671)">
    <title
       id="title6">Layer 1</title>
    <rect
       x="-410.25"
       y="-406.25"
       id="svg_37"
       height="1458.25"
       width="1458.25"
       style="fill:#f0db4f" />
    <path
       id="svg_38"
       d="m 966.66026,845.95457 c -5.6441,-35.18395 -28.58697,-64.7238 -96.53598,-92.2846 -23.60258,-10.84837 -49.91721,-18.61814 -57.76032,-36.50334 -2.78538,-10.40859 -3.15188,-16.27259 -1.39271,-22.57636 5.05771,-20.45069 29.46657,-26.82774 48.81776,-20.96375 12.46099,4.17805 24.26225,13.78037 31.37235,29.10002 33.27817,-21.55014 33.20484,-21.40353 56.44093,-36.21012 -8.50278,-13.19398 -13.04738,-19.27787 -18.6182,-24.92197 -20.01086,-22.35647 -47.27844,-33.86456 -90.89188,-32.98495 -7.54988,0.95289 -15.17304,1.97908 -22.72297,2.93199 -21.77003,5.4975 -42.51394,16.93226 -54.6817,32.25196 -36.50335,41.41444 -26.09475,113.90802 18.32497,143.74109 43.76005,32.83834 108.04403,40.31494 116.25363,71.02762 7.98971,37.60285 -27.63403,49.77065 -63.03792,45.44594 -26.09474,-5.42421 -40.60812,-18.69147 -56.29432,-42.80716 -28.88013,16.71237 -28.88013,16.71237 -58.56659,33.79128 7.03678,15.39298 14.44004,22.35647 26.24136,35.69702 55.85453,56.66086 195.63741,53.87543 220.70598,-31.88546 1.02618,-2.93195 7.76978,-22.57631 2.34561,-52.84921 z M 677.85864,613.1541 l -72.1271,0 c 0,62.30491 -0.29319,124.17005 -0.29319,186.47496 0,39.65524 2.05238,76.01197 -4.39799,87.15357 -10.55521,21.91668 -37.89607,19.20458 -50.35705,14.95319 -12.68087,-6.23049 -19.13127,-15.09981 -26.60785,-27.63407 -2.05241,-3.59172 -3.59172,-6.3771 -4.1048,-6.59699 -19.57108,11.94788 -39.06884,23.96907 -58.63992,35.91695 9.74888,20.01087 24.11566,37.38295 42.51394,48.67115 27.48746,16.49248 64.43061,21.55015 103.05967,12.68088 25.14185,-7.32999 46.83865,-22.50308 58.20014,-45.59255 16.41915,-30.27285 12.90077,-66.9228 12.75415,-107.45769 0.3665,-66.11647 0,-132.23299 0,-198.5694 z"
       inkscape:connector-curvature="0"
       style="fill:#323330;fill-opacity:1"
       inkscape:export-xdpi="90"
       inkscape:export-ydpi="90" />
    <path
       style="fill:#323330;fill-opacity:1"
       d=""
       id="path3381"
       inkscape:connector-curvature="0"
       transform="matrix(1.3888095,0,0,1.3888095,-410.25,-409.02761)" />
    <g
       transform="matrix(2.1153246,0,0,2.1153246,191.39163,615.90399)"
       id="g4393"
       style="fill:none;fill-opacity:1;stroke:#2effff;stroke-width:5.86077595;stroke-miterlimit:4;stroke-dasharray:none;stroke-opacity:1"
       inkscape:export-xdpi="90"
       inkscape:export-ydpi="90">
      <title
         id="title4395">Layer 1</title>
      <path
         inkscape:connector-curvature="0"
         id="rect4397"
         d="m 20.45915,114.48108 c 0.554,0 1,3.568 1,8 l 0,34 c 0,4.432 -0.446,8 -1,8 -0.554,0 -1,-3.568 -1,-8 l 0,-34 c 0,-4.432 0.446,-8 1,-8 z"
         style="fill:none;fill-opacity:1;stroke:#323330;stroke-width:5.86077595;stroke-miterlimit:4;stroke-dasharray:none;stroke-opacity:1" />
      <path
         inkscape:connector-curvature="0"
         id="rect4399"
         d="m 32.45915,84.481084 c 0.554,0 1,3.568 1,8 l 0,63.999996 c 0,4.432 -0.446,8 -1,8 -0.554,0 -1,-3.568 -1,-8 l 0,-63.999996 c 0,-4.432 0.446,-8 1,-8 z"
         style="fill:none;fill-opacity:1;stroke:#323330;stroke-width:5.86077595;stroke-miterlimit:4;stroke-dasharray:none;stroke-opacity:1" />
      <path
         inkscape:connector-curvature="0"
         id="rect4401"
         d="m 44.459152,54.481084 c 0.554,0 1,3.568 1,8 l 0,93.999996 c 0,4.432 -0.446,8 -1,8 -0.554,0 -1,-3.568 -1,-8 l 0,-93.999996 c 0,-4.432 0.446,-8 1,-8 z"
         style="fill:none;fill-opacity:1;stroke:#323330;stroke-width:5.86077595;stroke-miterlimit:4;stroke-dasharray:none;stroke-opacity:1" />
      <path
         inkscape:connector-curvature="0"
         id="rect4403"
         d="m 56.459153,-45.518916 c 0.554,0 1,3.568 1,8 l 0,193.999996 c 0,4.432 -0.446,8 -1,8 -0.554,0 -1,-3.568 -1,-8 l 0,-193.999996 c 0,-4.432 0.446,-8 1,-8 z"
         style="fill:none;fill-opacity:1;stroke:#323330;stroke-width:5.86077595;stroke-miterlimit:4;stroke-dasharray:none;stroke-opacity:1" />
      <path
         inkscape:connector-curvature="0"
         id="rect4405"
         d="m 68.459149,54.481084 c 0.554,0 1,3.568 1,8 l 0,93.999996 c 0,4.432 -0.446,8 -1,8 -0.554,0 -1,-3.568 -1,-8 l 0,-93.999996 c 0,-4.432 0.446,-8 1,-8 z"
         style="fill:none;fill-opacity:1;stroke:#323330;stroke-width:5.86077595;stroke-miterlimit:4;stroke-dasharray:none;stroke-opacity:1" />
      <path
         inkscape:connector-curvature="0"
         id="rect4407"
         d="m 80.459145,84.481084 c 0.554,0 1,3.568 1,8 l 0,63.999996 c 0,4.432 -0.446,8 -1,8 -0.554,0 -1,-3.568 -1,-8 l 0,-63.999996 c 0,-4.432 0.446,-8 1,-8 z"
         style="fill:none;fill-opacity:1;stroke:#323330;stroke-width:5.86077595;stroke-miterlimit:4;stroke-dasharray:none;stroke-opacity:1" />
      <path
         inkscape:connector-curvature="0"
         id="rect4409"
         d="m 92.459145,114.48108 c 0.554,0 1,3.568 1,8 l 0,34 c 0,4.432 -0.446,8 -1,8 -0.554,0 -1,-3.568 -1,-8 l 0,-34 c 0,-4.432 0.446,-8 1,-8 z"
         style="fill:none;fill-opacity:1;stroke:#323330;stroke-width:5.86077595;stroke-miterlimit:4;stroke-dasharray:none;stroke-opacity:1" />
    </g>
    <text
       xml:space="preserve"
       style="font-style:normal;font-weight:normal;font-size:59.22496033px;line-height:125%;font-family:sans-serif;letter-spacing:0px;word-spacing:0px;fill:#323330;fill-opacity:1;stroke:none;stroke-width:1px;stroke-linecap:butt;stroke-linejoin:miter;stroke-opacity:1"
       x="605.93262"
       y="591.97162"
       id="text4174"
       sodipodi:linespacing="125%"
       inkscape:export-xdpi="90"
       inkscape:export-ydpi="90"><tspan
         sodipodi:role="line"
         id="tspan4176"
         x="605.93262"
         y="591.97162"
         style="font-style:normal;font-variant:normal;font-weight:bold;font-stretch:normal;font-size:59.22496033px;line-height:125%;font-family:sans-serif;-inkscape-font-specification:'sans-serif, Bold';text-align:start;writing-mode:lr-tb;text-anchor:start;fill:#323330;fill-opacity:1">T O R I N O</tspan></text>
  </g>
  <defs
     id="defs11">
    <svg
       id="svg_39"
       height="1052"
       width="1052"
       version="1.1">
      <!-- Created with SVG-edit - http://svg-edit.googlecode.com/ -->
      <defs
         id="defs14">
        <radialGradient
           id="svg_5"
           cx="0.5"
           cy="0.5"
           r="0.5">
          <stop
             offset="0"
             stop-color="#ff0000"
             id="stop17" />
          <stop
             offset="1"
             stop-color="#ffff00"
             id="stop19" />
        </radialGradient>
      </defs>
      <g
         id="g21"
         style="fill:#c839cf;fill-opacity:1">
        <title
           id="title23">Layer 1</title>
        <rect
           fill="#000000"
           stroke="#000000"
           stroke-width="5"
           stroke-linejoin="null"
           stroke-linecap="null"
           x="89.5"
           y="280"
           width="2"
           height="50"
           rx="8"
           ry="8"
           id="svg_14"
           style="fill:#c839cf;fill-opacity:1" />
        <rect
           fill="#000000"
           stroke="#000000"
           stroke-width="5"
           stroke-linejoin="null"
           stroke-linecap="null"
           x="101.5"
           y="250"
           width="2"
           height="80"
           rx="8"
           ry="8"
           id="svg_15"
           style="fill:#c839cf;fill-opacity:1" />
        <rect
           fill="#000000"
           stroke="#000000"
           stroke-width="5"
           stroke-linejoin="null"
           stroke-linecap="null"
           x="113.5"
           y="220"
           width="2"
           height="110"
           rx="8"
           ry="8"
           id="svg_16"
           style="fill:#c839cf;fill-opacity:1" />
        <rect
           fill="#000000"
           stroke="#000000"
           stroke-width="5"
           stroke-linejoin="null"
           stroke-linecap="null"
           x="126.5"
           y="120"
           width="2"
           height="210"
           rx="8"
           ry="8"
           id="svg_17"
           style="fill:#c839cf;fill-opacity:1" />
        <rect
           fill="#000000"
           stroke="#000000"
           stroke-width="5"
           stroke-linejoin="null"
           stroke-linecap="null"
           x="138.5"
           y="220"
           width="2"
           height="110"
           rx="8"
           ry="8"
           id="svg_33"
           style="fill:#c839cf;fill-opacity:1" />
        <rect
           fill="#000000"
           stroke="#000000"
           stroke-width="5"
           stroke-linejoin="null"
           stroke-linecap="null"
           x="149.5"
           y="250"
           width="2"
           height="80"
           rx="8"
           ry="8"
           id="svg_34"
           style="fill:#c839cf;fill-opacity:1" />
        <rect
           fill="#000000"
           stroke="#000000"
           stroke-width="5"
           stroke-linejoin="null"
           stroke-linecap="null"
           x="161.5"
           y="280"
           width="2"
           height="50"
           rx="8"
           ry="8"
           id="svg_35"
           style="fill:#c839cf;fill-opacity:1" />
      </g>
    </svg>
    <defs
       id="defs4385">
      <radialGradient
         id="radialGradient4387"
         cx="0.5"
         cy="0.5"
         r="0.5">
        <stop
           offset="0"
           stop-color="#ff0000"
           id="stop4389" />
        <stop
           offset="1"
           stop-color="#ffff00"
           id="stop4391" />
      </radialGradient>
    </defs>
  </defs>
</svg>
