<svg width="1052" height="1052" xmlns="http://www.w3.org/2000/svg" xmlns:xlink="http://www.w3.org/1999/xlink">
 <g>
  <title>Layer 1</title>
  <rect x="-410.249993" y="-406.249993" id="svg_37" height="1458.249993" width="1458.249993" fill="#F0DB4F"/>
  <path id="svg_38" d="m965.900024,801.099976c-7.700012,-48 -39,-88.299988 -131.700012,-125.900024c-32.200012,-14.799988 -68.099976,-25.399963 -78.799988,-49.799988c-3.799988,-14.200012 -4.299988,-22.200012 -1.900024,-30.799988c6.900024,-27.900024 40.200012,-36.599976 66.600037,-28.599976c17,5.699951 33.099976,18.799988 42.799988,39.699951c45.400024,-29.399963 45.299988,-29.199951 77,-49.399963c-11.599976,-18 -17.799988,-26.299988 -25.400024,-34c-27.299988,-30.5 -64.5,-46.200012 -124,-45c-10.299988,1.299988 -20.699951,2.699982 -31,4c-29.699951,7.5 -58,23.099976 -74.599976,44c-49.799988,56.5 -35.599976,155.399963 25,196.099976c59.700012,44.799988 147.399963,55 158.599976,96.900024c10.900024,51.299988 -37.699951,67.900024 -86,62c-35.599976,-7.400024 -55.399963,-25.5 -76.799988,-58.400024c-39.399963,22.799988 -39.399963,22.799988 -79.899963,46.100037c9.599976,21 19.699951,30.5 35.799988,48.699951c76.200012,77.300049 266.899963,73.5 301.099976,-43.5c1.399963,-3.999939 10.599976,-30.799927 3.200012,-72.099976zm-394,-317.599976h-98.399994c0,85 -0.399994,169.400024 -0.399994,254.400024c0,54.099976 2.799988,103.699951 -6,118.899963c-14.400024,29.900024 -51.700012,26.200012 -68.700012,20.400024c-17.299988,-8.5 -26.100006,-20.600037 -36.299988,-37.700012c-2.800018,-4.900024 -4.900024,-8.700012 -5.600006,-9c-26.700012,16.299988 -53.299988,32.700012 -80,49c13.299988,27.299988 32.899994,51 58,66.400024c37.5,22.5 87.899994,29.399963 140.600006,17.299988c34.299988,-10 63.900024,-30.700012 79.400024,-62.200012c22.399963,-41.299988 17.599976,-91.299988 17.399963,-146.600037c0.5,-90.199951 0,-180.399963 0,-270.899963z" fill="#323330"/>
  <use transform="matrix(5.82346527421862,0,0,5.82346527421862,-672.6683492302291,-1600.7753345729172) " fill="#bfbfbf" x="-20.911521" y="109.541563" id="svg_40" xlink:href="#svg_39"/>
 </g>
 <defs>
  <svg id="svg_39" height="1052" width="1052">
   <!-- Created with SVG-edit - http://svg-edit.googlecode.com/ -->
   <defs>
    <radialGradient id="svg_5" cx="0.5" cy="0.5" r="0.5">
     <stop offset="0" stop-color="#ff0000"/>
     <stop offset="1" stop-color="#ffff00"/>
    </radialGradient>
   </defs>
   <g>
    <title>Layer 1</title>
    <rect fill="#000000" stroke="#000000" stroke-width="5" stroke-linejoin="null" stroke-linecap="null" x="89.5" y="280" width="2" height="50" rx="8" ry="8" id="svg_14"/>
    <rect fill="#000000" stroke="#000000" stroke-width="5" stroke-linejoin="null" stroke-linecap="null" x="101.5" y="250" width="2" height="80" rx="8" ry="8" id="svg_15"/>
    <rect fill="#000000" stroke="#000000" stroke-width="5" stroke-linejoin="null" stroke-linecap="null" x="113.5" y="220" width="2" height="110" rx="8" ry="8" id="svg_16"/>
    <rect fill="#000000" stroke="#000000" stroke-width="5" stroke-linejoin="null" stroke-linecap="null" x="126.5" y="120" width="2" height="210" rx="8" ry="8" id="svg_17"/>
    <rect fill="#000000" stroke="#000000" stroke-width="5" stroke-linejoin="null" stroke-linecap="null" x="138.5" y="220" width="2" height="110" rx="8" ry="8" id="svg_33"/>
    <rect fill="#000000" stroke="#000000" stroke-width="5" stroke-linejoin="null" stroke-linecap="null" x="149.5" y="250" width="2" height="80" rx="8" ry="8" id="svg_34"/>
    <rect fill="#000000" stroke="#000000" stroke-width="5" stroke-linejoin="null" stroke-linecap="null" x="161.5" y="280" width="2" height="50" rx="8" ry="8" id="svg_35"/>
   </g>
  </svg>
 </defs>
</svg>