<?xml version="1.0" encoding="UTF-8" standalone="no"?>
<svg
   xmlns:dc="http://purl.org/dc/elements/1.1/"
   xmlns:cc="http://creativecommons.org/ns#"
   xmlns:rdf="http://www.w3.org/1999/02/22-rdf-syntax-ns#"
   xmlns:svg="http://www.w3.org/2000/svg"
   xmlns="http://www.w3.org/2000/svg"
   xmlns:sodipodi="http://sodipodi.sourceforge.net/DTD/sodipodi-0.dtd"
   xmlns:inkscape="http://www.inkscape.org/namespaces/inkscape"
   width="1052"
   height="1052"
   id="svg2"
   version="1.1"
   inkscape:version="0.91 r13725"
   sodipodi:docname="torinojs-logo.svg"
   inkscape:export-filename="/home/grigio/Code/torinojs/discussion/torinojs-logo.svg.png"
   inkscape:export-xdpi="90"
   inkscape:export-ydpi="90">
  <metadata
     id="metadata34">
    <rdf:RDF>
      <cc:Work
         rdf:about="">
        <dc:format>image/svg+xml</dc:format>
        <dc:type
           rdf:resource="http://purl.org/dc/dcmitype/StillImage" />
        <dc:title />
      </cc:Work>
    </rdf:RDF>
  </metadata>
  <sodipodi:namedview
     pagecolor="#ffffff"
     bordercolor="#666666"
     borderopacity="1"
     objecttolerance="10"
     gridtolerance="10"
     guidetolerance="10"
     inkscape:pageopacity="0"
     inkscape:pageshadow="2"
     inkscape:window-width="1920"
     inkscape:window-height="1136"
     id="namedview32"
     showgrid="false"
     inkscape:zoom="0.079314258"
     inkscape:cx="4397.959"
     inkscape:cy="547.88694"
     inkscape:window-x="0"
     inkscape:window-y="27"
     inkscape:window-maximized="1"
     inkscape:current-layer="g4"
     showguides="true"
     inkscape:guide-bbox="true">
    <sodipodi:guide
       position="1134.7266,59.88835"
       orientation="0,1"
       id="guide4439" />
  </sodipodi:namedview>
  <g
     id="g4"
     transform="matrix(0.72004115,0,0,0.72004115,295.39688,294.51671)">
    <title
       id="title6">Layer 1</title>
    <rect
       x="-410.25"
       y="-406.25"
       id="svg_37"
       height="1458.25"
       width="1458.25"
       style="fill:#f3df49;fill-opacity:1"
       inkscape:export-xdpi="90"
       inkscape:export-ydpi="90" />
    <path
       id="svg_38"
       d="m 965.90002,801.09998 c -7.70001,-48 -39,-88.29999 -131.70001,-125.90003 C 802,660.39996 766.10004,649.79999 755.40002,625.39996 751.60004,611.19995 751.10004,603.19995 753.5,594.59998 760.40002,566.69995 793.70001,558 820.10004,566 c 17,5.69995 33.09997,18.79999 42.79999,39.69995 45.40002,-29.39996 45.29998,-29.19995 77,-49.39996 -11.59998,-18 -17.79999,-26.29999 -25.40003,-34 -27.29999,-30.5 -64.5,-46.20001 -124,-45 -10.29999,1.29999 -20.69995,2.69998 -31,4 -29.69995,7.5 -58,23.09997 -74.59997,44 -49.79999,56.5 -35.59998,155.39996 25,196.09997 59.70001,44.79999 147.39996,55 158.59997,96.90003 10.90003,51.29999 -37.69995,67.90002 -86,62 -35.59997,-7.40003 -55.39996,-25.5 -76.79999,-58.40003 -39.39996,22.79999 -39.39996,22.79999 -79.89996,46.10004 9.59998,21 19.69995,30.5 35.79999,48.69995 76.20001,77.30005 266.89996,73.5 301.09997,-43.5 1.39997,-3.99994 10.59998,-30.79992 3.20002,-72.09997 z m -394,-317.59998 -98.39999,0 c 0,85 -0.39999,169.40002 -0.39999,254.40002 0,54.09998 2.79998,103.69995 -6,118.89997 -14.40003,29.90002 -51.70002,26.20001 -68.70002,20.40002 -17.29998,-8.5 -26.1,-20.60004 -36.29998,-37.70001 -2.80002,-4.90003 -4.90003,-8.70001 -5.60001,-9 -26.70001,16.29999 -53.29999,32.70001 -80,49 13.29999,27.29999 32.89999,51 58,66.40002 37.5,22.5 87.89999,29.39997 140.60001,17.29999 34.29998,-10 63.90002,-30.70001 79.40002,-62.20001 22.39996,-41.29999 17.59998,-91.29999 17.39996,-146.60004 0.5,-90.19995 0,-180.39996 0,-270.89996 z"
       inkscape:connector-curvature="0"
       style="fill:#2e2e2c;fill-opacity:1"
       inkscape:export-xdpi="90"
       inkscape:export-ydpi="90" />
    <path
       style="fill:#323330;fill-opacity:1"
       d=""
       id="path3381"
       inkscape:connector-curvature="0"
       transform="matrix(1.3888095,0,0,1.3888095,-410.25,-409.02761)" />
    <g
       transform="matrix(5.8250329,0,0,5.7862996,-373.04318,-6.7826199)"
       id="g4393"
       style="fill:none;fill-opacity:1;stroke:#2effff;stroke-width:5.86077595;stroke-miterlimit:4;stroke-dasharray:none;stroke-opacity:1"
       inkscape:export-xdpi="90"
       inkscape:export-ydpi="90">
      <title
         id="title4395">Layer 1</title>
      <path
         inkscape:connector-curvature="0"
         id="rect4397"
         d="m 20.45915,114.48108 c 0.554,0 1,3.568 1,8 l 0,34 c 0,4.432 -0.446,8 -1,8 -0.554,0 -1,-3.568 -1,-8 l 0,-34 c 0,-4.432 0.446,-8 1,-8 z"
         style="fill:none;fill-opacity:1;stroke:#2e2e2c;stroke-width:5.86077595;stroke-miterlimit:4;stroke-dasharray:none;stroke-opacity:1" />
      <path
         inkscape:connector-curvature="0"
         id="rect4399"
         d="m 32.45915,84.481084 c 0.554,0 1,3.568 1,8 l 0,63.999996 c 0,4.432 -0.446,8 -1,8 -0.554,0 -1,-3.568 -1,-8 l 0,-63.999996 c 0,-4.432 0.446,-8 1,-8 z"
         style="fill:none;fill-opacity:1;stroke:#2e2e2c;stroke-width:5.86077595;stroke-miterlimit:4;stroke-dasharray:none;stroke-opacity:1" />
      <path
         inkscape:connector-curvature="0"
         id="rect4401"
         d="m 44.459152,54.481084 c 0.554,0 1,3.568 1,8 l 0,93.999996 c 0,4.432 -0.446,8 -1,8 -0.554,0 -1,-3.568 -1,-8 l 0,-93.999996 c 0,-4.432 0.446,-8 1,-8 z"
         style="fill:none;fill-opacity:1;stroke:#2e2e2c;stroke-width:5.86077595;stroke-miterlimit:4;stroke-dasharray:none;stroke-opacity:1" />
      <path
         inkscape:connector-curvature="0"
         id="rect4403"
         d="m 56.459153,-45.518916 c 0.554,0 1,3.568 1,8 l 0,193.999996 c 0,4.432 -0.446,8 -1,8 -0.554,0 -1,-3.568 -1,-8 l 0,-193.999996 c 0,-4.432 0.446,-8 1,-8 z"
         style="fill:none;fill-opacity:1;stroke:#2e2e2c;stroke-width:5.86077595;stroke-miterlimit:4;stroke-dasharray:none;stroke-opacity:1" />
      <path
         inkscape:connector-curvature="0"
         id="rect4405"
         d="m 68.459149,54.481084 c 0.554,0 1,3.568 1,8 l 0,93.999996 c 0,4.432 -0.446,8 -1,8 -0.554,0 -1,-3.568 -1,-8 l 0,-93.999996 c 0,-4.432 0.446,-8 1,-8 z"
         style="fill:none;fill-opacity:1;stroke:#2e2e2c;stroke-width:5.86077595;stroke-miterlimit:4;stroke-dasharray:none;stroke-opacity:1" />
      <path
         inkscape:connector-curvature="0"
         id="rect4407"
         d="m 80.459145,84.481084 c 0.554,0 1,3.568 1,8 l 0,63.999996 c 0,4.432 -0.446,8 -1,8 -0.554,0 -1,-3.568 -1,-8 l 0,-63.999996 c 0,-4.432 0.446,-8 1,-8 z"
         style="fill:none;fill-opacity:1;stroke:#2e2e2c;stroke-width:5.86077595;stroke-miterlimit:4;stroke-dasharray:none;stroke-opacity:1" />
      <path
         inkscape:connector-curvature="0"
         id="rect4409"
         d="m 92.459145,114.48108 c 0.554,0 1,3.568 1,8 l 0,34 c 0,4.432 -0.446,8 -1,8 -0.554,0 -1,-3.568 -1,-8 l 0,-34 c 0,-4.432 0.446,-8 1,-8 z"
         style="fill:none;fill-opacity:1;stroke:#2e2e2c;stroke-width:5.86077595;stroke-miterlimit:4;stroke-dasharray:none;stroke-opacity:1" />
    </g>
    <text
       xml:space="preserve"
       style="font-style:normal;font-variant:normal;font-weight:normal;font-stretch:normal;font-size:184.90757751px;line-height:125%;font-family:Bungee;-inkscape-font-specification:'Bungee, Normal';text-align:start;letter-spacing:0px;word-spacing:0px;writing-mode:lr-tb;text-anchor:start;fill:#f3df49;fill-opacity:1;stroke:#2e2e2c;stroke-width:11.08269993;stroke-linecap:butt;stroke-linejoin:miter;stroke-miterlimit:4;stroke-dasharray:none;stroke-opacity:1;"
       x="-458.67676"
       y="683.69464"
       id="text4169"
       sodipodi:linespacing="125%"
       transform="scale(0.69832193,1.4320043)"
       inkscape:export-xdpi="90"
       inkscape:export-ydpi="90"><tspan
         sodipodi:role="line"
         id="tspan4171"
         x="-458.67676"
         y="683.69464"
         style="font-style:normal;font-variant:normal;font-weight:normal;font-stretch:normal;font-size:184.90757751px;line-height:125%;font-family:Bungee;-inkscape-font-specification:'Bungee, Normal';text-align:start;writing-mode:lr-tb;text-anchor:start;fill:#f3df49;fill-opacity:1;stroke:#2e2e2c;stroke-width:11.08269993;stroke-miterlimit:4;stroke-dasharray:none;stroke-opacity:1;">TORINO</tspan></text>
  </g>
  <defs
     id="defs11">
    <svg
       id="svg_39"
       height="1052"
       width="1052"
       version="1.1">
      <!-- Created with SVG-edit - http://svg-edit.googlecode.com/ -->
      <defs
         id="defs14">
        <radialGradient
           id="svg_5"
           cx="0.5"
           cy="0.5"
           r="0.5">
          <stop
             offset="0"
             stop-color="#ff0000"
             id="stop17" />
          <stop
             offset="1"
             stop-color="#ffff00"
             id="stop19" />
        </radialGradient>
      </defs>
      <g
         id="g21"
         style="fill:#c839cf;fill-opacity:1">
        <title
           id="title23">Layer 1</title>
        <rect
           fill="#000000"
           stroke="#000000"
           stroke-width="5"
           stroke-linejoin="null"
           stroke-linecap="null"
           x="89.5"
           y="280"
           width="2"
           height="50"
           rx="8"
           ry="8"
           id="svg_14"
           style="fill:#c839cf;fill-opacity:1" />
        <rect
           fill="#000000"
           stroke="#000000"
           stroke-width="5"
           stroke-linejoin="null"
           stroke-linecap="null"
           x="101.5"
           y="250"
           width="2"
           height="80"
           rx="8"
           ry="8"
           id="svg_15"
           style="fill:#c839cf;fill-opacity:1" />
        <rect
           fill="#000000"
           stroke="#000000"
           stroke-width="5"
           stroke-linejoin="null"
           stroke-linecap="null"
           x="113.5"
           y="220"
           width="2"
           height="110"
           rx="8"
           ry="8"
           id="svg_16"
           style="fill:#c839cf;fill-opacity:1" />
        <rect
           fill="#000000"
           stroke="#000000"
           stroke-width="5"
           stroke-linejoin="null"
           stroke-linecap="null"
           x="126.5"
           y="120"
           width="2"
           height="210"
           rx="8"
           ry="8"
           id="svg_17"
           style="fill:#c839cf;fill-opacity:1" />
        <rect
           fill="#000000"
           stroke="#000000"
           stroke-width="5"
           stroke-linejoin="null"
           stroke-linecap="null"
           x="138.5"
           y="220"
           width="2"
           height="110"
           rx="8"
           ry="8"
           id="svg_33"
           style="fill:#c839cf;fill-opacity:1" />
        <rect
           fill="#000000"
           stroke="#000000"
           stroke-width="5"
           stroke-linejoin="null"
           stroke-linecap="null"
           x="149.5"
           y="250"
           width="2"
           height="80"
           rx="8"
           ry="8"
           id="svg_34"
           style="fill:#c839cf;fill-opacity:1" />
        <rect
           fill="#000000"
           stroke="#000000"
           stroke-width="5"
           stroke-linejoin="null"
           stroke-linecap="null"
           x="161.5"
           y="280"
           width="2"
           height="50"
           rx="8"
           ry="8"
           id="svg_35"
           style="fill:#c839cf;fill-opacity:1" />
      </g>
    </svg>
    <defs
       id="defs4385">
      <radialGradient
         id="radialGradient4387"
         cx="0.5"
         cy="0.5"
         r="0.5">
        <stop
           offset="0"
           stop-color="#ff0000"
           id="stop4389" />
        <stop
           offset="1"
           stop-color="#ffff00"
           id="stop4391" />
      </radialGradient>
    </defs>
  </defs>
</svg>
